<?xml version="1.0" encoding="UTF-8"?>
<svg width="73px" height="73px" viewBox="0 0 73 73" version="1.1" xmlns="http://www.w3.org/2000/svg" xmlns:xlink="http://www.w3.org/1999/xlink">
    <!-- Generator: Sketch 51.3 (57544) - http://www.bohemiancoding.com/sketch -->
    <title>testing/unit-testing</title>
    <desc>Created with Sketch.</desc>
    <defs></defs>
    <g id="testing/unit-testing" stroke="none" stroke-width="1" fill="none" fill-rule="evenodd">
        <g id="container" transform="translate(2.000000, 2.000000)" fill="#FFFFFF" fill-rule="nonzero" stroke="#2C3B73" stroke-width="2">
            <rect id="mask" x="-1" y="-1" width="71" height="71" rx="14"></rect>
        </g>
        <g id="unit" transform="translate(13.000000, 13.000000)" fill-rule="nonzero">
            <path d="M46.7402812,46.7402812 C45.1089375,48.39975 42.43725,48.39975 40.7777812,46.7402812 L33.1558125,39.1183125 L33.3245625,33.3245625 L39.1183125,33.1558125 L46.7402812,40.7777812 C48.39975,42.4370625 48.39975,45.1089375 46.7402812,46.7402812 Z" id="Shape" fill="#47568C"></path>
            <path d="M46.7402812,46.7402812 C45.1089375,48.39975 42.43725,48.39975 40.7777812,46.7402812 L33.1558125,39.1183125 L33.3245625,33.3245625 L46.7402812,46.7402812 Z" id="Shape" fill="#2C3B73"></path>
            <path d="M39.1183125,33.1558125 L33.1558125,39.1183125 L27.0527812,33.0152812 C26.5184062,32.4809062 26.5184062,31.5809062 27.0527812,31.0465312 L31.0464375,27.052875 C31.5808125,26.5185 32.4808125,26.5185 33.0151875,27.052875 L39.1183125,33.1558125 Z" id="Shape" fill="#FDBF00"></path>
            <path d="M36.1370625,36.1370625 L33.1558125,39.1183125 L27.0527812,33.0152812 C26.5184062,32.4809062 26.5184062,31.5809062 27.0527812,31.0465312 L29.04975,29.0495625 L36.1370625,36.1370625 Z" id="Shape" fill="#FF9100"></path>
            <path d="M31.18725,5.3683125 C24.0434062,-1.8035625 12.51225,-1.77534375 5.3683125,5.3683125 C-1.8035625,12.5121563 -1.77534375,24.0433125 5.3683125,31.1870625 C12.5121562,38.3590313 24.0433125,38.3309063 31.18725,31.1870625 C38.3590312,24.0434063 38.3309062,12.5121563 31.18725,5.3683125 Z" id="Shape" fill="#DBA51A"></path>
            <path d="M31.18725,31.1870625 C24.0434062,38.3309063 12.51225,38.3590313 5.3683125,31.1870625 C-1.77534375,24.0434063 -1.8035625,12.5121563 5.3683125,5.3683125 L31.18725,31.1870625 Z" id="Shape" fill="#DBA51A"></path>
            <path d="M29.2184062,29.2184062 C23.1714375,35.2651875 13.3840312,35.2651875 7.3370625,29.2184062 C1.29028125,23.1714375 1.29028125,13.3840312 7.3370625,7.3370625 C13.3840312,1.29009375 23.1714375,1.29009375 29.2184062,7.3370625 C35.2651875,13.3840312 35.2651875,23.1715312 29.2184062,29.2184062 Z" id="Shape" fill="#EDF5FF"></path>
            <path d="M29.2184062,29.2184062 C23.1714375,35.2651875 13.3840312,35.2651875 7.3370625,29.2184062 C1.29028125,23.1714375 1.29028125,13.3840312 7.3370625,7.3370625 L29.2184062,29.2184062 Z" id="Shape" fill="#D7E9FF"></path>
        </g>
    </g>
</svg>